<mxfile host="app.diagrams.net" modified="2022-08-13T16:29:18.947Z" agent="5.0 (Windows NT 10.0; Win64; x64) AppleWebKit/537.36 (KHTML, like Gecko) Chrome/104.0.0.0 Safari/537.36" etag="Drwl4-LYF9buiNtc1Uti" version="20.2.3" type="github">
  <diagram id="aS9pjdUC0Do7hMSleVWt" name="第 1 页">
    <mxGraphModel dx="2062" dy="1122" grid="0" gridSize="10" guides="1" tooltips="1" connect="1" arrows="1" fold="1" page="1" pageScale="1" pageWidth="1654" pageHeight="1169" background="none" math="0" shadow="0">
      <root>
        <mxCell id="0" />
        <mxCell id="1" parent="0" />
        <mxCell id="eDFqkNTLr4-eCkODvhOK-2" value="ResourceLoader" style="swimlane;fontStyle=0;childLayout=stackLayout;horizontal=1;startSize=26;fillColor=#CCFFCC;horizontalStack=0;resizeParent=1;resizeParentMax=0;resizeLast=0;collapsible=1;marginBottom=0;direction=east;strokeColor=default;swimlaneLine=1;glass=0;rounded=0;shadow=0;" parent="1" vertex="1" collapsed="1">
          <mxGeometry x="837" y="104" width="130" height="30" as="geometry">
            <mxRectangle x="758" y="56" width="180" height="52" as="alternateBounds" />
          </mxGeometry>
        </mxCell>
        <mxCell id="eDFqkNTLr4-eCkODvhOK-3" value="" style="text;strokeColor=none;fillColor=#CCFFCC;align=left;verticalAlign=top;spacingLeft=4;spacingRight=4;overflow=hidden;rotatable=0;points=[[0,0.5],[1,0.5]];portConstraint=eastwest;" parent="eDFqkNTLr4-eCkODvhOK-2" vertex="1">
          <mxGeometry y="26" width="180" height="26" as="geometry" />
        </mxCell>
        <mxCell id="eDFqkNTLr4-eCkODvhOK-7" value="DefaultResourceLoader" style="swimlane;fontStyle=0;childLayout=stackLayout;horizontal=1;startSize=26;fillColor=#CCFFFF;horizontalStack=0;resizeParent=1;resizeParentMax=0;resizeLast=0;collapsible=1;marginBottom=0;direction=east;strokeColor=default;swimlaneLine=1;glass=0;rounded=0;shadow=0;" parent="1" vertex="1" collapsed="1">
          <mxGeometry x="683" y="205" width="170" height="30" as="geometry">
            <mxRectangle x="604" y="162" width="183" height="52" as="alternateBounds" />
          </mxGeometry>
        </mxCell>
        <mxCell id="eDFqkNTLr4-eCkODvhOK-8" value="" style="text;strokeColor=none;fillColor=#CCFFFF;align=left;verticalAlign=top;spacingLeft=4;spacingRight=4;overflow=hidden;rotatable=0;points=[[0,0.5],[1,0.5]];portConstraint=eastwest;" parent="eDFqkNTLr4-eCkODvhOK-7" vertex="1">
          <mxGeometry y="26" width="183" height="26" as="geometry" />
        </mxCell>
        <mxCell id="eDFqkNTLr4-eCkODvhOK-10" value="ResourcePatternResolver" style="swimlane;fontStyle=0;childLayout=stackLayout;horizontal=1;startSize=26;fillColor=#CCFFCC;horizontalStack=0;resizeParent=1;resizeParentMax=0;resizeLast=0;collapsible=1;marginBottom=0;direction=east;strokeColor=default;swimlaneLine=1;glass=0;rounded=0;shadow=0;" parent="1" vertex="1" collapsed="1">
          <mxGeometry x="1013" y="205" width="173" height="30" as="geometry">
            <mxRectangle x="955" y="162" width="180" height="52" as="alternateBounds" />
          </mxGeometry>
        </mxCell>
        <mxCell id="eDFqkNTLr4-eCkODvhOK-11" value="" style="text;strokeColor=none;fillColor=#CCFFCC;align=left;verticalAlign=top;spacingLeft=4;spacingRight=4;overflow=hidden;rotatable=0;points=[[0,0.5],[1,0.5]];portConstraint=eastwest;" parent="eDFqkNTLr4-eCkODvhOK-10" vertex="1">
          <mxGeometry y="26" width="180" height="26" as="geometry" />
        </mxCell>
        <mxCell id="eDFqkNTLr4-eCkODvhOK-13" value="PathMatchingResourcePatternResolver" style="swimlane;fontStyle=0;childLayout=stackLayout;horizontal=1;startSize=26;fillColor=#CCFFFF;horizontalStack=0;resizeParent=1;resizeParentMax=0;resizeLast=0;collapsible=1;marginBottom=0;direction=east;strokeColor=default;swimlaneLine=1;glass=0;rounded=0;shadow=0;" parent="1" vertex="1" collapsed="1">
          <mxGeometry x="1257" y="205" width="255" height="30" as="geometry">
            <mxRectangle x="1272" y="162" width="242" height="52" as="alternateBounds" />
          </mxGeometry>
        </mxCell>
        <mxCell id="eDFqkNTLr4-eCkODvhOK-14" value="" style="text;strokeColor=none;fillColor=#CCFFFF;align=left;verticalAlign=top;spacingLeft=4;spacingRight=4;overflow=hidden;rotatable=0;points=[[0,0.5],[1,0.5]];portConstraint=eastwest;" parent="eDFqkNTLr4-eCkODvhOK-13" vertex="1">
          <mxGeometry y="26" width="242" height="26" as="geometry" />
        </mxCell>
        <mxCell id="eDFqkNTLr4-eCkODvhOK-16" value="ApplicationContext" style="swimlane;fontStyle=0;childLayout=stackLayout;horizontal=1;startSize=26;fillColor=#CCFFCC;horizontalStack=0;resizeParent=1;resizeParentMax=0;resizeLast=0;collapsible=1;marginBottom=0;direction=east;strokeColor=default;swimlaneLine=1;glass=0;rounded=0;shadow=0;" parent="1" vertex="1" collapsed="1">
          <mxGeometry x="1029" y="307" width="141" height="30" as="geometry">
            <mxRectangle x="955" y="259" width="162" height="52" as="alternateBounds" />
          </mxGeometry>
        </mxCell>
        <mxCell id="eDFqkNTLr4-eCkODvhOK-17" value="" style="text;strokeColor=none;fillColor=#CCFFCC;align=left;verticalAlign=top;spacingLeft=4;spacingRight=4;overflow=hidden;rotatable=0;points=[[0,0.5],[1,0.5]];portConstraint=eastwest;" parent="eDFqkNTLr4-eCkODvhOK-16" vertex="1">
          <mxGeometry y="26" width="162" height="26" as="geometry" />
        </mxCell>
        <mxCell id="eDFqkNTLr4-eCkODvhOK-19" value="ClassRelativeResourceLoader" style="swimlane;fontStyle=0;childLayout=stackLayout;horizontal=1;startSize=26;fillColor=#CCFFFF;horizontalStack=0;resizeParent=1;resizeParentMax=0;resizeLast=0;collapsible=1;marginBottom=0;direction=east;strokeColor=default;swimlaneLine=1;glass=0;rounded=0;shadow=0;" parent="1" vertex="1" collapsed="1">
          <mxGeometry x="106" y="492" width="200" height="30" as="geometry">
            <mxRectangle x="20" y="259" width="203" height="52" as="alternateBounds" />
          </mxGeometry>
        </mxCell>
        <mxCell id="eDFqkNTLr4-eCkODvhOK-20" value="" style="text;strokeColor=none;fillColor=#CCFFFF;align=left;verticalAlign=top;spacingLeft=4;spacingRight=4;overflow=hidden;rotatable=0;points=[[0,0.5],[1,0.5]];portConstraint=eastwest;" parent="eDFqkNTLr4-eCkODvhOK-19" vertex="1">
          <mxGeometry y="26" width="203" height="26" as="geometry" />
        </mxCell>
        <mxCell id="eDFqkNTLr4-eCkODvhOK-22" value="FileSystemResourceLoader" style="swimlane;fontStyle=0;childLayout=stackLayout;horizontal=1;startSize=26;fillColor=#CCFFFF;horizontalStack=0;resizeParent=1;resizeParentMax=0;resizeLast=0;collapsible=1;marginBottom=0;direction=east;strokeColor=default;swimlaneLine=1;glass=0;rounded=0;shadow=0;" parent="1" vertex="1" collapsed="1">
          <mxGeometry x="324" y="492" width="183" height="30" as="geometry">
            <mxRectangle x="238" y="259" width="189" height="52" as="alternateBounds" />
          </mxGeometry>
        </mxCell>
        <mxCell id="eDFqkNTLr4-eCkODvhOK-23" value="" style="text;strokeColor=none;fillColor=#CCFFFF;align=left;verticalAlign=top;spacingLeft=4;spacingRight=4;overflow=hidden;rotatable=0;points=[[0,0.5],[1,0.5]];portConstraint=eastwest;" parent="eDFqkNTLr4-eCkODvhOK-22" vertex="1">
          <mxGeometry y="26" width="189" height="26" as="geometry" />
        </mxCell>
        <mxCell id="eDFqkNTLr4-eCkODvhOK-25" value="ServletContextResourceLoader" style="swimlane;fontStyle=0;childLayout=stackLayout;horizontal=1;startSize=26;fillColor=#CCFFFF;horizontalStack=0;resizeParent=1;resizeParentMax=0;resizeLast=0;collapsible=1;marginBottom=0;direction=east;strokeColor=default;swimlaneLine=1;glass=0;rounded=0;shadow=0;" parent="1" vertex="1" collapsed="1">
          <mxGeometry x="528" y="492" width="210" height="30" as="geometry">
            <mxRectangle x="442" y="259" width="205" height="52" as="alternateBounds" />
          </mxGeometry>
        </mxCell>
        <mxCell id="eDFqkNTLr4-eCkODvhOK-26" value="" style="text;strokeColor=none;fillColor=#CCFFFF;align=left;verticalAlign=top;spacingLeft=4;spacingRight=4;overflow=hidden;rotatable=0;points=[[0,0.5],[1,0.5]];portConstraint=eastwest;" parent="eDFqkNTLr4-eCkODvhOK-25" vertex="1">
          <mxGeometry y="26" width="205" height="26" as="geometry" />
        </mxCell>
        <mxCell id="eDFqkNTLr4-eCkODvhOK-28" value="AbstractApplicationContext" style="swimlane;fontStyle=0;childLayout=stackLayout;horizontal=1;startSize=26;fillColor=#CCFFFF;horizontalStack=0;resizeParent=1;resizeParentMax=0;resizeLast=0;collapsible=1;marginBottom=0;direction=east;strokeColor=default;swimlaneLine=1;glass=0;rounded=0;shadow=0;" parent="1" vertex="1" collapsed="1">
          <mxGeometry x="768" y="492" width="197" height="30" as="geometry">
            <mxRectangle x="768" y="492" width="193" height="52" as="alternateBounds" />
          </mxGeometry>
        </mxCell>
        <mxCell id="eDFqkNTLr4-eCkODvhOK-29" value="" style="text;strokeColor=none;fillColor=#CCFFFF;align=left;verticalAlign=top;spacingLeft=4;spacingRight=4;overflow=hidden;rotatable=0;points=[[0,0.5],[1,0.5]];portConstraint=eastwest;" parent="eDFqkNTLr4-eCkODvhOK-28" vertex="1">
          <mxGeometry y="26" width="193" height="26" as="geometry" />
        </mxCell>
        <mxCell id="eDFqkNTLr4-eCkODvhOK-32" value="ConfigurableApplicationContext" style="swimlane;fontStyle=0;childLayout=stackLayout;horizontal=1;startSize=26;fillColor=#CCFFCC;horizontalStack=0;resizeParent=1;resizeParentMax=0;resizeLast=0;collapsible=1;marginBottom=0;direction=east;strokeColor=default;swimlaneLine=1;glass=0;rounded=0;shadow=0;" parent="1" vertex="1" collapsed="1">
          <mxGeometry x="990.5" y="395" width="218" height="30" as="geometry">
            <mxRectangle x="955" y="356" width="216" height="52" as="alternateBounds" />
          </mxGeometry>
        </mxCell>
        <mxCell id="eDFqkNTLr4-eCkODvhOK-33" value="" style="text;strokeColor=none;fillColor=#CCFFCC;align=left;verticalAlign=top;spacingLeft=4;spacingRight=4;overflow=hidden;rotatable=0;points=[[0,0.5],[1,0.5]];portConstraint=eastwest;" parent="eDFqkNTLr4-eCkODvhOK-32" vertex="1">
          <mxGeometry y="26" width="216" height="26" as="geometry" />
        </mxCell>
        <mxCell id="eDFqkNTLr4-eCkODvhOK-39" value="Lifecycle" style="swimlane;fontStyle=0;childLayout=stackLayout;horizontal=1;startSize=26;fillColor=#CCFFCC;horizontalStack=0;resizeParent=1;resizeParentMax=0;resizeLast=0;collapsible=1;marginBottom=0;direction=east;strokeColor=default;swimlaneLine=1;glass=0;rounded=0;shadow=0;" parent="1" vertex="1" collapsed="1">
          <mxGeometry x="1219" y="307" width="91" height="30" as="geometry">
            <mxRectangle x="1367" y="255" width="82" height="52" as="alternateBounds" />
          </mxGeometry>
        </mxCell>
        <mxCell id="eDFqkNTLr4-eCkODvhOK-40" value="" style="text;strokeColor=none;fillColor=#CCFFCC;align=left;verticalAlign=top;spacingLeft=4;spacingRight=4;overflow=hidden;rotatable=0;points=[[0,0.5],[1,0.5]];portConstraint=eastwest;" parent="eDFqkNTLr4-eCkODvhOK-39" vertex="1">
          <mxGeometry y="26" width="82" height="26" as="geometry" />
        </mxCell>
        <mxCell id="eDFqkNTLr4-eCkODvhOK-41" value="Closeable" style="swimlane;fontStyle=0;childLayout=stackLayout;horizontal=1;startSize=26;fillColor=#CCFFCC;horizontalStack=0;resizeParent=1;resizeParentMax=0;resizeLast=0;collapsible=1;marginBottom=0;direction=east;strokeColor=default;swimlaneLine=1;glass=0;rounded=0;shadow=0;" parent="1" vertex="1" collapsed="1">
          <mxGeometry x="903" y="307" width="95" height="30" as="geometry">
            <mxRectangle x="1210" y="259" width="92" height="52" as="alternateBounds" />
          </mxGeometry>
        </mxCell>
        <mxCell id="eDFqkNTLr4-eCkODvhOK-42" value="" style="text;strokeColor=none;fillColor=#CCFFCC;align=left;verticalAlign=top;spacingLeft=4;spacingRight=4;overflow=hidden;rotatable=0;points=[[0,0.5],[1,0.5]];portConstraint=eastwest;" parent="eDFqkNTLr4-eCkODvhOK-41" vertex="1">
          <mxGeometry y="26" width="92" height="26" as="geometry" />
        </mxCell>
        <mxCell id="eDFqkNTLr4-eCkODvhOK-43" value="AbstractRefreshableApplicationContext" style="swimlane;fontStyle=0;childLayout=stackLayout;horizontal=1;startSize=26;fillColor=#CCFFFF;horizontalStack=0;resizeParent=1;resizeParentMax=0;resizeLast=0;collapsible=1;marginBottom=0;direction=east;strokeColor=default;swimlaneLine=1;glass=0;rounded=0;shadow=0;" parent="1" vertex="1" collapsed="1">
          <mxGeometry x="741.5" y="600" width="250" height="30" as="geometry">
            <mxRectangle x="684" y="576" width="255" height="52" as="alternateBounds" />
          </mxGeometry>
        </mxCell>
        <mxCell id="eDFqkNTLr4-eCkODvhOK-44" value="" style="text;strokeColor=none;fillColor=#CCFFFF;align=left;verticalAlign=top;spacingLeft=4;spacingRight=4;overflow=hidden;rotatable=0;points=[[0,0.5],[1,0.5]];portConstraint=eastwest;" parent="eDFqkNTLr4-eCkODvhOK-43" vertex="1">
          <mxGeometry y="26" width="255" height="26" as="geometry" />
        </mxCell>
        <mxCell id="eDFqkNTLr4-eCkODvhOK-46" value="AbstractRefreshableConfigApplicationContext" style="swimlane;fontStyle=0;childLayout=stackLayout;horizontal=1;startSize=26;fillColor=#CCFFFF;horizontalStack=0;resizeParent=1;resizeParentMax=0;resizeLast=0;collapsible=1;marginBottom=0;direction=east;strokeColor=default;swimlaneLine=1;glass=0;rounded=0;shadow=0;" parent="1" vertex="1" collapsed="1">
          <mxGeometry x="720.5" y="698" width="292" height="30" as="geometry">
            <mxRectangle x="670.5" y="673" width="282" height="52" as="alternateBounds" />
          </mxGeometry>
        </mxCell>
        <mxCell id="eDFqkNTLr4-eCkODvhOK-47" value="" style="text;strokeColor=none;fillColor=#CCFFFF;align=left;verticalAlign=top;spacingLeft=4;spacingRight=4;overflow=hidden;rotatable=0;points=[[0,0.5],[1,0.5]];portConstraint=eastwest;" parent="eDFqkNTLr4-eCkODvhOK-46" vertex="1">
          <mxGeometry y="26" width="282" height="26" as="geometry" />
        </mxCell>
        <mxCell id="eDFqkNTLr4-eCkODvhOK-49" value="AbstractXmlApplicationContext" style="swimlane;fontStyle=0;childLayout=stackLayout;horizontal=1;startSize=26;fillColor=#CCFFFF;horizontalStack=0;resizeParent=1;resizeParentMax=0;resizeLast=0;collapsible=1;marginBottom=0;direction=east;strokeColor=default;swimlaneLine=1;glass=0;rounded=0;shadow=0;" parent="1" vertex="1" collapsed="1">
          <mxGeometry x="758.5" y="800" width="216" height="30" as="geometry">
            <mxRectangle x="709" y="779" width="205" height="52" as="alternateBounds" />
          </mxGeometry>
        </mxCell>
        <mxCell id="eDFqkNTLr4-eCkODvhOK-50" value="" style="text;strokeColor=none;fillColor=#CCFFFF;align=left;verticalAlign=top;spacingLeft=4;spacingRight=4;overflow=hidden;rotatable=0;points=[[0,0.5],[1,0.5]];portConstraint=eastwest;" parent="eDFqkNTLr4-eCkODvhOK-49" vertex="1">
          <mxGeometry y="26" width="205" height="26" as="geometry" />
        </mxCell>
        <mxCell id="eDFqkNTLr4-eCkODvhOK-52" value="ClassPathXmlApplicationContext" style="swimlane;fontStyle=0;childLayout=stackLayout;horizontal=1;startSize=26;fillColor=#CCFFFF;horizontalStack=0;resizeParent=1;resizeParentMax=0;resizeLast=0;collapsible=1;marginBottom=0;direction=east;strokeColor=default;swimlaneLine=1;glass=0;rounded=0;shadow=0;" parent="1" vertex="1" collapsed="1">
          <mxGeometry x="886" y="902" width="218" height="30" as="geometry">
            <mxRectangle x="941" y="893" width="208" height="52" as="alternateBounds" />
          </mxGeometry>
        </mxCell>
        <mxCell id="eDFqkNTLr4-eCkODvhOK-53" value="" style="text;strokeColor=none;fillColor=#CCFFFF;align=left;verticalAlign=top;spacingLeft=4;spacingRight=4;overflow=hidden;rotatable=0;points=[[0,0.5],[1,0.5]];portConstraint=eastwest;" parent="eDFqkNTLr4-eCkODvhOK-52" vertex="1">
          <mxGeometry y="26" width="208" height="26" as="geometry" />
        </mxCell>
        <mxCell id="rqdoCPFN9nggNmxES_CL-2" value="FileSystemXmlApplicationContext" style="swimlane;fontStyle=0;childLayout=stackLayout;horizontal=1;startSize=26;fillColor=#CCFFFF;horizontalStack=0;resizeParent=1;resizeParentMax=0;resizeLast=0;collapsible=1;marginBottom=0;direction=east;strokeColor=default;swimlaneLine=1;glass=0;rounded=0;shadow=0;" vertex="1" collapsed="1" parent="1">
          <mxGeometry x="598" y="902" width="239" height="30" as="geometry">
            <mxRectangle x="548" y="893" width="214" height="52" as="alternateBounds" />
          </mxGeometry>
        </mxCell>
        <mxCell id="rqdoCPFN9nggNmxES_CL-3" value="" style="text;strokeColor=none;fillColor=#CCFFFF;align=left;verticalAlign=top;spacingLeft=4;spacingRight=4;overflow=hidden;rotatable=0;points=[[0,0.5],[1,0.5]];portConstraint=eastwest;" vertex="1" parent="rqdoCPFN9nggNmxES_CL-2">
          <mxGeometry y="26" width="214" height="26" as="geometry" />
        </mxCell>
        <mxCell id="rqdoCPFN9nggNmxES_CL-5" value="" style="endArrow=classic;html=1;rounded=0;entryX=0;entryY=1;entryDx=0;entryDy=0;exitX=0.5;exitY=0;exitDx=0;exitDy=0;" edge="1" parent="1" source="eDFqkNTLr4-eCkODvhOK-19" target="eDFqkNTLr4-eCkODvhOK-7">
          <mxGeometry width="50" height="50" relative="1" as="geometry">
            <mxPoint x="195" y="307" as="sourcePoint" />
            <mxPoint x="250" y="253" as="targetPoint" />
          </mxGeometry>
        </mxCell>
        <mxCell id="rqdoCPFN9nggNmxES_CL-6" value="" style="endArrow=classic;html=1;rounded=0;entryX=0.25;entryY=1;entryDx=0;entryDy=0;exitX=0.5;exitY=0;exitDx=0;exitDy=0;" edge="1" parent="1" source="eDFqkNTLr4-eCkODvhOK-22" target="eDFqkNTLr4-eCkODvhOK-7">
          <mxGeometry width="50" height="50" relative="1" as="geometry">
            <mxPoint x="415" y="307" as="sourcePoint" />
            <mxPoint x="470" y="253" as="targetPoint" />
          </mxGeometry>
        </mxCell>
        <mxCell id="rqdoCPFN9nggNmxES_CL-7" value="" style="endArrow=classic;html=1;rounded=0;entryX=0.5;entryY=1;entryDx=0;entryDy=0;exitX=0.5;exitY=0;exitDx=0;exitDy=0;" edge="1" parent="1" source="eDFqkNTLr4-eCkODvhOK-25" target="eDFqkNTLr4-eCkODvhOK-7">
          <mxGeometry width="50" height="50" relative="1" as="geometry">
            <mxPoint x="616" y="307" as="sourcePoint" />
            <mxPoint x="671" y="253" as="targetPoint" />
          </mxGeometry>
        </mxCell>
        <mxCell id="rqdoCPFN9nggNmxES_CL-8" value="" style="endArrow=classic;html=1;rounded=0;entryX=0.5;entryY=1;entryDx=0;entryDy=0;dashed=1;" edge="1" parent="1" source="eDFqkNTLr4-eCkODvhOK-28" target="eDFqkNTLr4-eCkODvhOK-32">
          <mxGeometry width="50" height="50" relative="1" as="geometry">
            <mxPoint x="941" y="524" as="sourcePoint" />
            <mxPoint x="1149" y="507" as="targetPoint" />
          </mxGeometry>
        </mxCell>
        <mxCell id="rqdoCPFN9nggNmxES_CL-9" value="" style="endArrow=classic;html=1;rounded=0;entryX=0.75;entryY=1;entryDx=0;entryDy=0;" edge="1" parent="1" source="eDFqkNTLr4-eCkODvhOK-28" target="eDFqkNTLr4-eCkODvhOK-7">
          <mxGeometry width="50" height="50" relative="1" as="geometry">
            <mxPoint x="865" y="498" as="sourcePoint" />
            <mxPoint x="901" y="470" as="targetPoint" />
          </mxGeometry>
        </mxCell>
        <mxCell id="rqdoCPFN9nggNmxES_CL-10" value="" style="endArrow=classic;html=1;rounded=0;entryX=0.5;entryY=1;entryDx=0;entryDy=0;exitX=0.5;exitY=0;exitDx=0;exitDy=0;" edge="1" parent="1" source="eDFqkNTLr4-eCkODvhOK-43" target="eDFqkNTLr4-eCkODvhOK-28">
          <mxGeometry width="50" height="50" relative="1" as="geometry">
            <mxPoint x="867" y="601" as="sourcePoint" />
            <mxPoint x="888" y="579" as="targetPoint" />
          </mxGeometry>
        </mxCell>
        <mxCell id="rqdoCPFN9nggNmxES_CL-11" value="" style="endArrow=classic;html=1;rounded=0;entryX=0.5;entryY=1;entryDx=0;entryDy=0;exitX=0.5;exitY=0;exitDx=0;exitDy=0;" edge="1" parent="1" source="eDFqkNTLr4-eCkODvhOK-46" target="eDFqkNTLr4-eCkODvhOK-43">
          <mxGeometry width="50" height="50" relative="1" as="geometry">
            <mxPoint x="934" y="693" as="sourcePoint" />
            <mxPoint x="888" y="676" as="targetPoint" />
          </mxGeometry>
        </mxCell>
        <mxCell id="rqdoCPFN9nggNmxES_CL-12" value="" style="endArrow=classic;html=1;rounded=0;entryX=0.5;entryY=1;entryDx=0;entryDy=0;exitX=0.5;exitY=0;exitDx=0;exitDy=0;" edge="1" parent="1" source="eDFqkNTLr4-eCkODvhOK-49" target="eDFqkNTLr4-eCkODvhOK-46">
          <mxGeometry width="50" height="50" relative="1" as="geometry">
            <mxPoint x="885" y="823" as="sourcePoint" />
            <mxPoint x="885" y="778" as="targetPoint" />
          </mxGeometry>
        </mxCell>
        <mxCell id="rqdoCPFN9nggNmxES_CL-13" value="" style="endArrow=classic;html=1;rounded=0;entryX=0.25;entryY=1;entryDx=0;entryDy=0;exitX=0.5;exitY=0;exitDx=0;exitDy=0;" edge="1" parent="1" source="rqdoCPFN9nggNmxES_CL-2" target="eDFqkNTLr4-eCkODvhOK-49">
          <mxGeometry width="50" height="50" relative="1" as="geometry">
            <mxPoint x="726" y="941" as="sourcePoint" />
            <mxPoint x="726" y="896" as="targetPoint" />
          </mxGeometry>
        </mxCell>
        <mxCell id="rqdoCPFN9nggNmxES_CL-16" value="" style="endArrow=classic;html=1;rounded=0;entryX=0.75;entryY=1;entryDx=0;entryDy=0;exitX=0.5;exitY=0;exitDx=0;exitDy=0;" edge="1" parent="1" source="eDFqkNTLr4-eCkODvhOK-52" target="eDFqkNTLr4-eCkODvhOK-49">
          <mxGeometry width="50" height="50" relative="1" as="geometry">
            <mxPoint x="1114.5" y="941" as="sourcePoint" />
            <mxPoint x="1114.5" y="896" as="targetPoint" />
          </mxGeometry>
        </mxCell>
        <mxCell id="rqdoCPFN9nggNmxES_CL-17" value="" style="endArrow=classic;html=1;rounded=0;dashed=1;" edge="1" parent="1">
          <mxGeometry width="50" height="50" relative="1" as="geometry">
            <mxPoint x="761" y="205" as="sourcePoint" />
            <mxPoint x="882" y="135" as="targetPoint" />
          </mxGeometry>
        </mxCell>
        <mxCell id="rqdoCPFN9nggNmxES_CL-18" value="" style="endArrow=classic;html=1;rounded=0;entryX=0.5;entryY=1;entryDx=0;entryDy=0;exitX=0.5;exitY=0;exitDx=0;exitDy=0;" edge="1" parent="1" source="eDFqkNTLr4-eCkODvhOK-32" target="eDFqkNTLr4-eCkODvhOK-16">
          <mxGeometry width="50" height="50" relative="1" as="geometry">
            <mxPoint x="1120" y="404" as="sourcePoint" />
            <mxPoint x="1175" y="350" as="targetPoint" />
          </mxGeometry>
        </mxCell>
        <mxCell id="rqdoCPFN9nggNmxES_CL-19" value="" style="endArrow=classic;html=1;rounded=0;entryX=0.5;entryY=1;entryDx=0;entryDy=0;exitX=0.5;exitY=0;exitDx=0;exitDy=0;" edge="1" parent="1" source="eDFqkNTLr4-eCkODvhOK-16" target="eDFqkNTLr4-eCkODvhOK-10">
          <mxGeometry width="50" height="50" relative="1" as="geometry">
            <mxPoint x="1138" y="272" as="sourcePoint" />
            <mxPoint x="1161" y="253" as="targetPoint" />
          </mxGeometry>
        </mxCell>
        <mxCell id="rqdoCPFN9nggNmxES_CL-20" value="" style="endArrow=classic;html=1;rounded=0;entryX=1;entryY=0.5;entryDx=0;entryDy=0;exitX=0;exitY=0.5;exitDx=0;exitDy=0;dashed=1;" edge="1" parent="1" source="eDFqkNTLr4-eCkODvhOK-13" target="eDFqkNTLr4-eCkODvhOK-10">
          <mxGeometry width="50" height="50" relative="1" as="geometry">
            <mxPoint x="1351" y="222" as="sourcePoint" />
            <mxPoint x="1406" y="168" as="targetPoint" />
          </mxGeometry>
        </mxCell>
        <mxCell id="rqdoCPFN9nggNmxES_CL-21" value="" style="endArrow=classic;html=1;rounded=0;entryX=0.75;entryY=1;entryDx=0;entryDy=0;exitX=0.5;exitY=0;exitDx=0;exitDy=0;" edge="1" parent="1" source="eDFqkNTLr4-eCkODvhOK-10" target="eDFqkNTLr4-eCkODvhOK-2">
          <mxGeometry width="50" height="50" relative="1" as="geometry">
            <mxPoint x="1120" y="205" as="sourcePoint" />
            <mxPoint x="1175" y="151" as="targetPoint" />
          </mxGeometry>
        </mxCell>
        <mxCell id="rqdoCPFN9nggNmxES_CL-26" value="" style="endArrow=classic;html=1;rounded=0;entryX=0.5;entryY=1;entryDx=0;entryDy=0;exitX=0.25;exitY=0;exitDx=0;exitDy=0;" edge="1" parent="1" source="eDFqkNTLr4-eCkODvhOK-32" target="eDFqkNTLr4-eCkODvhOK-41">
          <mxGeometry width="50" height="50" relative="1" as="geometry">
            <mxPoint x="1156" y="389" as="sourcePoint" />
            <mxPoint x="1172" y="322" as="targetPoint" />
          </mxGeometry>
        </mxCell>
        <mxCell id="rqdoCPFN9nggNmxES_CL-27" value="" style="endArrow=classic;html=1;rounded=0;entryX=0.5;entryY=1;entryDx=0;entryDy=0;exitX=0.75;exitY=0;exitDx=0;exitDy=0;" edge="1" parent="1" source="eDFqkNTLr4-eCkODvhOK-32" target="eDFqkNTLr4-eCkODvhOK-39">
          <mxGeometry width="50" height="50" relative="1" as="geometry">
            <mxPoint x="1205" y="395" as="sourcePoint" />
            <mxPoint x="1221" y="328" as="targetPoint" />
          </mxGeometry>
        </mxCell>
      </root>
    </mxGraphModel>
  </diagram>
</mxfile>
